<svg xmlns="http://www.w3.org/2000/svg" width="834" height="301" viewBox="0 0 834 301" version="1.1"><path d="M 602 115.983 C 594.169 117.430, 590.010 122.324, 590.004 130.102 C 589.999 136.413, 592.922 140.399, 602.033 146.503 C 608.637 150.929, 609.538 151.906, 609.829 154.959 C 610.427 161.242, 603.405 163.121, 596.595 158.500 C 594.569 157.125, 592.775 156, 592.607 156 C 592.440 156, 591.467 157.855, 590.445 160.123 C 588.585 164.246, 588.585 164.246, 590.873 166.098 C 595.589 169.917, 606.290 171.182, 612.282 168.629 C 617.724 166.310, 620.278 162.687, 620.786 156.568 C 621.396 149.216, 618.811 145.148, 609.905 139.439 C 601.668 134.159, 599.534 131.356, 600.938 127.663 C 602.592 123.313, 609.059 123.202, 613.307 127.450 C 614.797 128.940, 615.088 128.747, 617 125 C 618.142 122.762, 618.805 120.494, 618.474 119.959 C 616.628 116.971, 607.967 114.881, 602 115.983 M 702.755 121.846 C 699.408 123.324, 699.010 123.891, 699.005 127.184 C 699.001 130.457, 698.694 130.902, 696.250 131.184 C 693.789 131.467, 693.468 131.947, 693.193 135.750 C 692.905 139.722, 693.052 140, 695.443 140 C 698 140, 698 140.001, 698.024 149.250 C 698.067 165.873, 700.242 170, 708.962 170 C 715.775 170, 720.205 168.278, 719.533 165.891 C 719.240 164.851, 718.734 163.067, 718.410 161.928 C 717.995 160.472, 717.326 160.059, 716.160 160.541 C 709.015 163.493, 708 162.166, 708 149.878 C 708 140, 708 140, 712.500 140 C 717 140, 717 140, 717 135.500 C 717 131, 717 131, 712.500 131 C 708 131, 708 131, 708 125.500 C 708 122.475, 707.663 120.043, 707.250 120.096 C 706.837 120.149, 704.815 120.936, 702.755 121.846 M 737 130.975 C 731.594 131.961, 727.935 134.944, 725.367 140.458 C 720.752 150.370, 723.242 162.654, 730.898 167.742 C 735.058 170.506, 744.858 170.841, 750.897 168.424 C 754.835 166.849, 754.835 166.849, 753.312 163.174 C 751.347 158.432, 751.507 158.531, 748.842 160.398 C 745.550 162.704, 738.485 162.485, 736 160 C 734.900 158.900, 734 157.100, 734 156 C 734 154.120, 734.667 154, 745.134 154 C 756.269 154, 756.269 154, 755.785 147.242 C 755.251 139.777, 753.301 135.073, 749.801 132.807 C 746.888 130.921, 741.513 130.152, 737 130.975 M 780.643 131.018 C 779.071 131.495, 776.991 132.603, 776.020 133.482 C 774.390 134.957, 774.213 134.923, 773.721 133.040 C 773.281 131.360, 772.376 131, 768.594 131 C 764 131, 764 131, 764 150 C 764 169, 764 169, 769.500 169 C 775 169, 775 169, 775 155.571 C 775 141.020, 775.672 139, 780.515 139 C 784.976 139, 786 142.214, 786 156.223 C 786 169, 786 169, 791 169 C 796 169, 796 169, 796 156 C 796 144.333, 796.205 142.795, 798 141 C 800.237 138.763, 803.979 138.379, 805.800 140.200 C 806.617 141.017, 807 145.800, 807 155.200 C 807 169, 807 169, 812.500 169 C 818 169, 818 169, 817.976 156.250 C 817.963 149.238, 817.551 141.769, 817.060 139.653 C 815.977 134.989, 812.815 131.413, 809.119 130.674 C 805.228 129.896, 799.057 131.499, 796.640 133.916 C 794.582 135.974, 794.582 135.974, 792.041 133.592 C 789.060 130.798, 784.650 129.802, 780.643 131.018 M 622.966 131.750 C 622.947 132.162, 625.972 140.057, 629.688 149.294 C 636.444 166.088, 636.444 166.088, 633.691 174.294 C 632.178 178.807, 630.953 182.862, 630.970 183.305 C 630.986 183.747, 633.131 183.972, 635.735 183.805 C 640.470 183.500, 640.470 183.500, 649.716 158.500 C 654.801 144.750, 658.970 132.938, 658.981 132.250 C 658.994 131.416, 657.354 131, 654.054 131 C 649.107 131, 649.107 131, 645.194 143.020 C 641.281 155.039, 641.281 155.039, 637.465 143.020 C 633.649 131, 633.649 131, 628.324 131 C 625.396 131, 622.985 131.338, 622.966 131.750 M 667.314 132.950 C 663.373 135.353, 662 137.815, 662 142.480 C 662 147.002, 664.634 149.777, 672.879 153.939 C 677.105 156.072, 679 157.610, 679 158.907 C 679 162.474, 673.244 163.056, 668.226 159.996 C 666.425 158.898, 664.782 158, 664.574 158 C 664.052 158, 662 164.013, 662 165.541 C 662 167.388, 669.390 170, 674.619 170 C 683.423 170, 689 165.258, 689 157.772 C 689 152.936, 686.724 150.390, 678.861 146.430 C 673.769 143.866, 671.962 142.447, 672.205 141.205 C 672.469 139.863, 673.600 139.510, 677.520 139.549 C 680.259 139.576, 683.207 139.931, 684.072 140.338 C 685.192 140.865, 685.982 140.334, 686.822 138.492 C 688.509 134.789, 688.343 134.229, 685.050 132.526 C 680.777 130.316, 671.261 130.544, 667.314 132.950 M 736.455 140.455 C 735.105 141.805, 734 143.830, 734 144.955 C 734 146.791, 734.622 147, 740.079 147 C 746.159 147, 746.159 147, 745.486 143.750 C 744.266 137.861, 740.444 136.466, 736.455 140.455" stroke="none" fill="#6cfc6c" fill-rule="evenodd"/><path d="M 267.713 17.795 C 264.827 19.018, 214.861 69.261, 213.818 71.990 C 211.609 77.774, 212.872 79.424, 240.935 107.416 C 267.862 134.276, 267.862 134.276, 272.648 133.736 C 279.292 132.987, 283 128.886, 283 122.287 C 283 117.606, 283 117.606, 262.025 96.548 C 241.049 75.490, 241.049 75.490, 262.025 54.447 C 283 33.404, 283 33.404, 283 28.718 C 283 22.455, 279.296 18.065, 273.500 17.458 C 271.300 17.227, 268.696 17.379, 267.713 17.795 M 20.400 49.400 C 17 52.800, 17 52.800, 17 132.177 C 17 203.944, 17.156 211.778, 18.631 213.883 C 22.179 218.949, 22.819 219, 82.468 219 C 138 219, 138 219, 138 235.457 C 138 251.915, 138 251.915, 108.417 252.207 C 78.833 252.500, 78.833 252.500, 75.917 255.766 C 71.808 260.366, 71.808 266.635, 75.918 271.234 C 78.836 274.500, 78.836 274.500, 150 274.500 C 221.164 274.500, 221.164 274.500, 224.082 271.234 C 228.192 266.635, 228.192 260.366, 224.083 255.766 C 221.167 252.500, 221.167 252.500, 191.083 252.208 C 161 251.916, 161 251.916, 161 235.528 C 161 219.141, 161 219.141, 176.437 218.820 C 191.874 218.500, 191.874 218.500, 194.889 215.609 C 196.546 214.020, 198.185 211.434, 198.530 209.863 C 199.381 205.988, 197.405 200.464, 194.293 198.016 C 191.774 196.035, 190.414 196, 115.365 196 C 39 196, 39 196, 39 132.518 C 39 69.037, 39 69.037, 115.435 68.768 C 191.869 68.500, 191.869 68.500, 194.886 65.609 C 196.545 64.020, 198.185 61.434, 198.530 59.863 C 199.381 55.988, 197.405 50.464, 194.293 48.016 C 191.770 46.031, 190.433 46, 107.765 46 C 23.800 46, 23.800 46, 20.400 49.400 M 118.994 78.876 C 111.687 81.270, 105.014 85.930, 101.376 91.179 C 99.277 94.207, 98.082 95.005, 95.614 95.022 C 91.462 95.051, 85.127 98.080, 81.803 101.624 C 68.723 115.573, 79.058 137, 98.866 137 C 102.806 137, 103 137.143, 103 140.045 C 103 141.961, 103.928 144.019, 105.500 145.591 C 106.875 146.966, 108 149.195, 108 150.545 C 108 152.958, 107.855 153, 99.545 153 C 91.861 153, 90.863 152.772, 88.591 150.500 C 85.396 147.305, 81.074 147.228, 78.174 150.314 C 71.540 157.376, 81.697 166.394, 88.557 159.534 C 90.828 157.263, 91.874 157.045, 101.762 156.784 C 112.500 156.500, 112.500 156.500, 112.805 151.750 C 113.261 144.639, 115 146.025, 115 153.500 C 115 160, 115 160, 107.500 160 C 100 160, 100 160, 100 162.955 C 100 164.773, 99.038 166.871, 97.500 168.409 C 92.746 173.164, 95.438 181, 101.826 181 C 105.381 181, 109 177.287, 109 173.640 C 109 172.060, 107.946 169.855, 106.500 168.409 C 105.125 167.034, 104 165.480, 104 164.955 C 104 164.430, 107.375 164, 111.500 164 C 119 164, 119 164, 119 155.500 C 119 147, 119 147, 122 147 C 125 147, 125 147, 125 154.948 C 125 162.041, 124.731 163.188, 122.500 165.595 C 119.711 168.604, 119.496 169.801, 121.110 173.343 C 123.591 178.788, 131.397 178.814, 133.870 173.385 C 135.505 169.798, 135.296 168.611, 132.500 165.595 C 130.269 163.188, 130 162.041, 130 154.948 C 130 147, 130 147, 133 147 C 136 147, 136 147, 136 155.500 C 136 164, 136 164, 143.500 164 C 147.625 164, 151 164.430, 151 164.955 C 151 165.480, 149.875 167.034, 148.500 168.409 C 145.305 171.604, 145.228 175.926, 148.314 178.826 C 155.404 185.486, 164.388 175.297, 157.500 168.409 C 155.962 166.871, 155 164.773, 155 162.955 C 155 160, 155 160, 147.500 160 C 140 160, 140 160, 140 153.500 C 140 146.025, 141.739 144.639, 142.195 151.750 C 142.500 156.500, 142.500 156.500, 153.238 156.784 C 163.126 157.045, 164.172 157.263, 166.443 159.534 C 171.165 164.256, 179 161.536, 179 155.174 C 179 151.619, 175.287 148, 171.640 148 C 170.060 148, 167.855 149.054, 166.409 150.500 C 164.137 152.772, 163.139 153, 155.455 153 C 147.145 153, 147 152.958, 147 150.545 C 147 149.195, 148.125 146.966, 149.500 145.591 C 151.072 144.019, 152 141.961, 152 140.045 C 152 137, 152 137, 158.250 136.978 C 172.202 136.929, 180.870 127.783, 178.572 115.534 C 177.308 108.792, 169.385 102, 162.786 102 C 159.789 102, 159.243 101.518, 157.078 96.958 C 151.727 85.687, 141.443 78.876, 129 78.363 C 124.875 78.194, 120.372 78.424, 118.994 78.876 M 119.739 83.361 C 117.120 84.095, 113.434 85.795, 111.547 87.137 C 108.179 89.534, 102.507 95.979, 101.739 98.282 C 101.524 98.928, 99.900 99.342, 98.115 99.206 C 93.570 98.859, 86.742 102.151, 83.751 106.131 C 74.923 117.876, 84.058 132.969, 100.011 132.994 C 103.521 133, 103.521 133, 103.260 119.825 C 102.880 100.647, 101.040 102, 127.500 102 C 153.960 102, 152.120 100.647, 151.740 119.825 C 151.479 133, 151.479 133, 156.989 132.978 C 170.615 132.924, 178.066 123.966, 173.070 113.645 C 170.582 108.506, 165.844 105.688, 160.470 106.151 C 156.446 106.498, 155.873 105.975, 153.656 99.941 C 151.583 94.299, 145.049 87.351, 139.512 84.902 C 133.813 82.381, 125.531 81.736, 119.739 83.361 M 107.687 106.646 C 107.309 107.024, 107 109.058, 107 111.167 C 107 115, 107 115, 127.557 115 C 148.115 115, 148.115 115, 147.807 110.750 C 147.500 106.500, 147.500 106.500, 127.937 106.229 C 117.178 106.081, 108.065 106.268, 107.687 106.646 M 110 111 C 110 112.873, 110.667 113, 120.500 113 C 130.333 113, 131 112.873, 131 111 C 131 109.127, 130.333 109, 120.500 109 C 110.667 109, 110 109.127, 110 111 M 134 111 C 134 112.333, 134.667 113, 136 113 C 137.333 113, 138 112.333, 138 111 C 138 109.667, 137.333 109, 136 109 C 134.667 109, 134 109.667, 134 111 M 141 111 C 141 112.333, 141.667 113, 143 113 C 144.333 113, 145 112.333, 145 111 C 145 109.667, 144.333 109, 143 109 C 141.667 109, 141 109.667, 141 111 M 323.750 116.552 C 323.337 116.982, 323 128.958, 323 143.167 C 323 169, 323 169, 328.500 169 C 334 169, 334 169, 334 160.276 C 334 151.552, 334 151.552, 340.070 160.276 C 346.140 169, 346.140 169, 352.070 169 C 355.332 169, 358 168.771, 358 168.490 C 358 168.210, 355.607 164.723, 352.681 160.740 C 349.756 156.758, 347.053 152.976, 346.675 152.335 C 346.265 151.641, 347.374 150.314, 349.423 149.048 C 356.645 144.584, 359.504 131.055, 354.737 123.898 C 351.261 118.680, 346.468 116.857, 334.691 116.274 C 329.086 115.997, 324.163 116.122, 323.750 116.552 M 221 117.653 C 217.943 118.868, 214.007 123.444, 213.446 126.436 C 213.128 128.132, 213.378 130.864, 214.002 132.506 C 214.626 134.148, 224.106 144.411, 235.069 155.314 C 246.031 166.217, 255 175.449, 255 175.828 C 255 176.208, 245.775 185.735, 234.500 197 C 214 217.482, 214 217.482, 214 222.225 C 214 226.053, 214.563 227.599, 216.918 230.234 C 219.490 233.113, 220.440 233.500, 224.934 233.500 C 230.031 233.500, 230.031 233.500, 256.516 206.962 C 283 180.423, 283 180.423, 283 175.500 C 283 170.577, 283 170.577, 256.696 144.220 C 232.326 119.799, 230.103 117.833, 226.446 117.460 C 224.276 117.238, 221.825 117.325, 221 117.653 M 107.402 121.394 C 107.099 122.185, 106.997 124.107, 107.175 125.666 C 107.500 128.500, 107.500 128.500, 127.500 128.500 C 147.500 128.500, 147.500 128.500, 147.500 124.500 C 147.500 120.500, 147.500 120.500, 127.727 120.229 C 111.282 120.003, 107.861 120.199, 107.402 121.394 M 516.032 121.582 C 511.935 123.359, 511.036 124.555, 511.015 128.250 C 511.003 130.513, 510.557 131, 508.500 131 C 506.204 131, 506 131.367, 506 135.500 C 506 139.633, 506.204 140, 508.500 140 C 511 140, 511 140, 511 151.550 C 511 164.424, 512.264 168.526, 516.564 169.606 C 519.861 170.433, 529.803 169.597, 531.009 168.391 C 531.525 167.875, 531.670 165.740, 531.330 163.647 C 530.792 160.331, 530.442 159.930, 528.606 160.526 C 527.448 160.902, 525.375 161.275, 524 161.355 C 521.500 161.500, 521.500 161.500, 521.216 150.750 C 520.932 140, 520.932 140, 525.524 140 C 530.115 140, 530.115 140, 529.807 135.750 C 529.501 131.521, 529.479 131.499, 525.250 131.193 C 521 130.885, 521 130.885, 521 125.443 C 521 122.449, 520.663 120.018, 520.250 120.039 C 519.837 120.061, 517.940 120.755, 516.032 121.582 M 110 124 C 110 125.873, 110.667 126, 120.500 126 C 130.333 126, 131 125.873, 131 124 C 131 122.127, 130.333 122, 120.500 122 C 110.667 122, 110 122.127, 110 124 M 134 124 C 134 125.333, 134.667 126, 136 126 C 137.333 126, 138 125.333, 138 124 C 138 122.667, 137.333 122, 136 122 C 134.667 122, 134 122.667, 134 124 M 141 124 C 141 125.333, 141.667 126, 143 126 C 144.333 126, 145 125.333, 145 124 C 145 122.667, 144.333 122, 143 122 C 141.667 122, 141 122.667, 141 124 M 334 135 C 334 144.929, 334.017 145, 336.435 145 C 341.008 145, 344.053 143.117, 345.646 139.304 C 348.871 131.587, 345.298 125, 337.889 125 C 334 125, 334 125, 334 135 M 377.123 131.005 C 372.254 132.151, 368.827 134.988, 366.189 140.059 C 364.244 143.797, 363.928 145.715, 364.194 152.182 C 364.542 160.688, 366.057 163.712, 371.990 167.750 C 375.958 170.451, 386 170.862, 391.532 168.551 C 395.430 166.922, 395.651 166.160, 393.460 161.922 C 392.006 159.110, 391.797 159.029, 389.737 160.472 C 387.276 162.195, 380.802 162.499, 378.039 161.021 C 377.033 160.483, 375.736 158.683, 375.157 157.021 C 374.104 154, 374.104 154, 385.552 154 C 397 154, 397 154, 397 150.549 C 397 145.260, 395.092 137.737, 393.156 135.397 C 389.819 131.361, 383.253 129.562, 377.123 131.005 M 420.741 131.453 C 418.673 132.178, 416.310 133.328, 415.491 134.008 C 414.249 135.038, 414 134.890, 414 133.122 C 414 131.274, 413.420 131, 409.500 131 C 405 131, 405 131, 405 150 C 405 169, 405 169, 410 169 C 415 169, 415 169, 415.015 156.750 C 415.031 142.867, 415.996 139.679, 420.334 139.178 C 425.522 138.578, 426 139.922, 426 155.122 C 426 169, 426 169, 431.500 169 C 437 169, 437 169, 437 155.655 C 437 143.997, 437.231 142.101, 438.829 140.655 C 441.336 138.386, 445.681 138.535, 446.965 140.934 C 447.534 141.998, 448 148.748, 448 155.934 C 448 169, 448 169, 453 169 C 458 169, 458 169, 457.996 153.750 C 457.993 140.410, 457.749 138.101, 456.048 135.311 C 452.645 129.730, 442.815 129.006, 437.553 133.950 C 435.516 135.864, 435.174 135.914, 433.982 134.479 C 431.010 130.897, 425.754 129.696, 420.741 131.453 M 479.123 130.980 C 470.634 133.039, 466.500 139.268, 466.500 150 C 466.500 159.740, 468.817 164.562, 475.058 167.815 C 480.757 170.785, 489.074 170.508, 493.730 167.193 C 500.089 162.664, 502.754 151.586, 499.831 141.829 C 498.468 137.280, 492.055 131.006, 488.747 130.986 C 487.511 130.979, 485.600 130.790, 484.500 130.567 C 483.400 130.344, 480.980 130.530, 479.123 130.980 M 551.500 130.494 C 550.950 130.676, 549.271 131.096, 547.768 131.427 C 537.139 133.769, 531.878 150.320, 538.059 161.977 C 540.796 167.139, 544.483 169.335, 551.232 169.823 C 556.770 170.224, 565.517 168.591, 566.519 166.969 C 566.776 166.553, 566.306 164.583, 565.474 162.591 C 563.968 158.987, 563.946 158.977, 561.030 160.485 C 556.236 162.963, 550.514 162.469, 548.073 159.365 C 544.205 154.448, 544.950 154, 557 154 C 568 154, 568 154, 567.998 147.750 C 567.997 140.719, 565.944 135.641, 562 132.913 C 559.562 131.226, 553.503 129.830, 551.500 130.494 M 107.406 134.384 C 107.105 135.168, 107.003 137.315, 107.180 139.155 C 107.500 142.500, 107.500 142.500, 127.500 142.500 C 147.500 142.500, 147.500 142.500, 147.500 138 C 147.500 133.500, 147.500 133.500, 127.727 133.229 C 111.350 133.004, 107.860 133.202, 107.406 134.384 M 110 138 C 110 139.873, 110.667 140, 120.500 140 C 130.333 140, 131 139.873, 131 138 C 131 136.127, 130.333 136, 120.500 136 C 110.667 136, 110 136.127, 110 138 M 134 138 C 134 139.333, 134.667 140, 136 140 C 137.333 140, 138 139.333, 138 138 C 138 136.667, 137.333 136, 136 136 C 134.667 136, 134 136.667, 134 138 M 141 138 C 141 139.333, 141.667 140, 143 140 C 144.333 140, 145 139.333, 145 138 C 145 136.667, 144.333 136, 143 136 C 141.667 136, 141 136.667, 141 138 M 378.303 139.197 C 376.578 140.030, 374 144.495, 374 146.649 C 374 146.842, 376.700 147, 380 147 C 385.967 147, 386 146.984, 386 144.071 C 386 141.057, 383.762 137.948, 381.679 138.068 C 381.030 138.105, 379.511 138.613, 378.303 139.197 M 550.229 138.669 C 548.884 139.210, 546 144.176, 546 145.950 C 546 146.567, 548.477 147, 552 147 C 557.577 147, 558 146.839, 558 144.723 C 558 139.984, 554.240 137.055, 550.229 138.669 M 478.927 140.588 C 478.104 141.580, 477.373 145.292, 477.156 149.578 C 476.815 156.325, 476.982 157.073, 479.348 159.439 C 482.550 162.641, 484.426 162.665, 487.545 159.545 C 489.636 157.455, 489.998 156.157, 489.985 150.795 C 489.966 142.414, 488.480 139.587, 483.891 139.199 C 481.485 138.996, 479.874 139.447, 478.927 140.588 M 80.994 153.507 C 79.887 154.841, 79.931 155.359, 81.258 156.687 C 83.403 158.831, 86.230 157.640, 85.820 154.765 C 85.429 152.026, 82.793 151.339, 80.994 153.507 M 169.362 153.500 C 168.569 155.564, 169.644 158, 171.346 158 C 172.121 158, 173.315 157.325, 174 156.500 C 174.993 155.303, 174.993 154.697, 174 153.500 C 173.315 152.675, 172.121 152, 171.346 152 C 170.571 152, 169.678 152.675, 169.362 153.500 M 125.614 168.529 C 123.596 170.547, 124.631 173, 127.500 173 C 130.369 173, 131.404 170.547, 129.386 168.529 C 128.545 167.688, 127.696 167, 127.500 167 C 127.304 167, 126.455 167.688, 125.614 168.529 M 99.332 172.578 C 98.999 173.445, 99.463 174.892, 100.363 175.792 C 101.879 177.307, 102.121 177.307, 103.637 175.792 C 105.681 173.747, 104.743 171, 102 171 C 100.865 171, 99.665 171.710, 99.332 172.578 M 150.332 172.578 C 149.999 173.445, 150.463 174.892, 151.363 175.792 C 152.879 177.307, 153.121 177.307, 154.637 175.792 C 156.681 173.747, 155.743 171, 153 171 C 151.865 171, 150.665 171.710, 150.332 172.578" stroke="none" fill="#fcfcfc" fill-rule="evenodd"/></svg>